# xmcd
#
# Track frame offsets:
#	150
#	16130
#	25425
#	40035
#	51203
#	78940
#	95480
#	109796
#	118866
#	129997
#	155718
#	165585
#	181112
#
# Disc length: 2662 seconds
#
# Revision: 1
# Processed by: cddbd v1.5.2PL0 Copyright (c) Steve Scherf et al.
# Submitted via: audiograbber 1.83.01
#
DISCID=9c0a640d
DTITLE=Kasey Chambers and The Fireside Disciples - Campfire
DYEAR=2018
DGENRE=Country
TTITLE0=The Campfire Song (feat. Alan Pigram)
TTITLE1=Go On Your Way
TTITLE2=Orphan Heart
TTITLE3=Goliath is Dead
TTITLE4=Abraham
TTITLE5=Early Grave
TTITLE6=The Harvest and the Seed (feat. Emmylou Harris)
TTITLE7=Big Fish
TTITLE8=Junkyard Man
TTITLE9=Now That You've Gone
TTITLE10=This Little Chicken (feat. My Dad)
TTITLE11=Fox and the Bird
TTITLE12=Happy (feat. The Little Pilgrims)
EXTD=
EXTT0=
EXTT1=
EXTT2=
EXTT3=
EXTT4=
EXTT5=
EXTT6=
EXTT7=
EXTT8=
EXTT9=
EXTT10=
EXTT11=
EXTT12=
PLAYORDER=
